<mxfile host="Electron" modified="2024-03-29T18:03:48.308Z" agent="Mozilla/5.0 (Windows NT 10.0; Win64; x64) AppleWebKit/537.36 (KHTML, like Gecko) draw.io/24.1.0 Chrome/120.0.6099.109 Electron/28.1.0 Safari/537.36" etag="OVDi8ebdtN0DnkJoUNzi" version="24.1.0" type="device">
  <diagram name="Página-1" id="V3Xzn6Pg8uMhF19Uj4Sa">
    <mxGraphModel dx="1420" dy="830" grid="1" gridSize="10" guides="1" tooltips="1" connect="1" arrows="1" fold="1" page="1" pageScale="1" pageWidth="827" pageHeight="1169" background="#CCE5FF" math="0" shadow="0">
      <root>
        <mxCell id="0" />
        <mxCell id="1" parent="0" />
        <mxCell id="at9vFEWsNDnWdApdyfN2-1" value="&lt;p style=&quot;line-height: 60%;&quot;&gt;&lt;b style=&quot;font-size: 15px;&quot;&gt;&lt;font style=&quot;font-size: 15px;&quot; color=&quot;#000000&quot; face=&quot;Comic Sans MS&quot;&gt;12&lt;br&gt;&lt;br&gt;Hacer un programa para leer tres números diferentes y determinar e informar el número del medio.&lt;br&gt;&lt;br&gt;Sugerimos probar CADA UNA de las siguientes 6 combinaciones.&lt;br&gt;&lt;br&gt;N1=8, N2=6, N3=10. Valor del medio: 8. N1=8, N2=10, N3=6. Valor del medio: 8&lt;br&gt;&lt;br&gt;N1=6, N2=8, N3=10. Valor del medio: 8. N1=10, N2=8, N3=6. Valor del medio: 8&lt;br&gt;&lt;br&gt;N1=6, N2=10, N3=8. Valor del medio: 8. N1=10, N2=6, N3=8. Valor del medio: 8&lt;/font&gt;&lt;/b&gt;&lt;/p&gt;" style="text;whiteSpace=wrap;html=1;fontFamily=Architects Daughter;fontSource=https%3A%2F%2Ffonts.googleapis.com%2Fcss%3Ffamily%3DArchitects%2BDaughter;" vertex="1" parent="1">
          <mxGeometry x="114" y="10" width="600" height="180" as="geometry" />
        </mxCell>
        <mxCell id="at9vFEWsNDnWdApdyfN2-42" value="" style="line;strokeWidth=2;direction=south;html=1;hachureGap=4;fontFamily=Architects Daughter;fontSource=https://fonts.googleapis.com/css?family=Architects+Daughter;strokeColor=#000000;aspect=fixed;container=0;" vertex="1" parent="1">
          <mxGeometry x="700" y="625" width="10" height="85" as="geometry" />
        </mxCell>
        <mxCell id="at9vFEWsNDnWdApdyfN2-43" value="" style="line;strokeWidth=2;direction=south;html=1;hachureGap=4;fontFamily=Architects Daughter;fontSource=https://fonts.googleapis.com/css?family=Architects+Daughter;strokeColor=#000000;aspect=fixed;container=0;" vertex="1" parent="1">
          <mxGeometry x="339" y="340" width="10" height="50" as="geometry" />
        </mxCell>
        <mxCell id="at9vFEWsNDnWdApdyfN2-45" value="" style="line;strokeWidth=2;direction=south;html=1;hachureGap=4;fontFamily=Architects Daughter;fontSource=https://fonts.googleapis.com/css?family=Architects+Daughter;strokeColor=#000000;aspect=fixed;container=0;" vertex="1" parent="1">
          <mxGeometry x="524" y="467" width="10" height="63" as="geometry" />
        </mxCell>
        <mxCell id="at9vFEWsNDnWdApdyfN2-46" value="" style="line;strokeWidth=2;direction=south;html=1;hachureGap=4;fontFamily=Architects Daughter;fontSource=https://fonts.googleapis.com/css?family=Architects+Daughter;strokeColor=#000000;aspect=fixed;container=0;" vertex="1" parent="1">
          <mxGeometry x="170" y="587" width="10" height="243" as="geometry" />
        </mxCell>
        <mxCell id="at9vFEWsNDnWdApdyfN2-47" value="" style="line;strokeWidth=2;direction=south;html=1;hachureGap=4;fontFamily=Architects Daughter;fontSource=https://fonts.googleapis.com/css?family=Architects+Daughter;strokeColor=#000000;aspect=fixed;container=0;" vertex="1" parent="1">
          <mxGeometry x="170" y="467" width="10" height="80" as="geometry" />
        </mxCell>
        <mxCell id="at9vFEWsNDnWdApdyfN2-48" value="" style="line;strokeWidth=2;html=1;perimeter=backbonePerimeter;points=[];outlineConnect=0;hachureGap=4;fontFamily=Architects Daughter;fontSource=https://fonts.googleapis.com/css?family=Architects+Daughter;strokeColor=#000000;aspect=fixed;container=0;" vertex="1" parent="1">
          <mxGeometry x="445" y="465" width="85" height="10" as="geometry" />
        </mxCell>
        <mxCell id="at9vFEWsNDnWdApdyfN2-49" value="" style="line;strokeWidth=2;html=1;perimeter=backbonePerimeter;points=[];outlineConnect=0;hachureGap=4;fontFamily=Architects Daughter;fontSource=https://fonts.googleapis.com/css?family=Architects+Daughter;strokeColor=#000000;aspect=fixed;container=0;" vertex="1" parent="1">
          <mxGeometry x="175" y="465" width="70" height="10" as="geometry" />
        </mxCell>
        <mxCell id="at9vFEWsNDnWdApdyfN2-50" value="" style="line;strokeWidth=2;html=1;perimeter=backbonePerimeter;points=[];outlineConnect=0;hachureGap=4;fontFamily=Architects Daughter;fontSource=https://fonts.googleapis.com/css?family=Architects+Daughter;strokeColor=#000000;aspect=fixed;container=0;" vertex="1" parent="1">
          <mxGeometry x="627" y="620" width="80" height="10" as="geometry" />
        </mxCell>
        <mxCell id="at9vFEWsNDnWdApdyfN2-51" value="" style="line;strokeWidth=2;html=1;perimeter=backbonePerimeter;points=[];outlineConnect=0;hachureGap=4;fontFamily=Architects Daughter;fontSource=https://fonts.googleapis.com/css?family=Architects+Daughter;strokeColor=#000000;aspect=fixed;container=0;" vertex="1" parent="1">
          <mxGeometry x="174" y="827" width="356" height="10" as="geometry" />
        </mxCell>
        <mxCell id="at9vFEWsNDnWdApdyfN2-53" value="" style="line;strokeWidth=2;html=1;perimeter=backbonePerimeter;points=[];outlineConnect=0;hachureGap=4;fontFamily=Architects Daughter;fontSource=https://fonts.googleapis.com/css?family=Architects+Daughter;strokeColor=#000000;aspect=fixed;container=0;" vertex="1" parent="1">
          <mxGeometry x="360" y="786" width="350" height="10" as="geometry" />
        </mxCell>
        <mxCell id="at9vFEWsNDnWdApdyfN2-54" value="" style="line;strokeWidth=2;html=1;perimeter=backbonePerimeter;points=[];outlineConnect=0;hachureGap=4;fontFamily=Architects Daughter;fontSource=https://fonts.googleapis.com/css?family=Architects+Daughter;strokeColor=#000000;aspect=fixed;container=0;" vertex="1" parent="1">
          <mxGeometry x="360" y="620" width="70" height="10" as="geometry" />
        </mxCell>
        <mxCell id="at9vFEWsNDnWdApdyfN2-63" value="" style="line;strokeWidth=2;direction=south;html=1;hachureGap=4;fontFamily=Architects Daughter;fontSource=https://fonts.googleapis.com/css?family=Architects+Daughter;strokeColor=#000000;aspect=fixed;container=0;" vertex="1" parent="1">
          <mxGeometry x="340" y="830" width="10" height="40" as="geometry" />
        </mxCell>
        <mxCell id="at9vFEWsNDnWdApdyfN2-64" value="" style="line;strokeWidth=2;direction=south;html=1;hachureGap=4;fontFamily=Architects Daughter;fontSource=https://fonts.googleapis.com/css?family=Architects+Daughter;strokeColor=#000000;aspect=fixed;container=0;" vertex="1" parent="1">
          <mxGeometry x="356" y="625" width="10" height="85" as="geometry" />
        </mxCell>
        <mxCell id="at9vFEWsNDnWdApdyfN2-66" value="" style="line;strokeWidth=2;direction=south;html=1;hachureGap=4;fontFamily=Architects Daughter;fontSource=https://fonts.googleapis.com/css?family=Architects+Daughter;strokeColor=#000000;aspect=fixed;container=0;" vertex="1" parent="1">
          <mxGeometry x="520" y="790" width="10" height="40" as="geometry" />
        </mxCell>
        <mxCell id="at9vFEWsNDnWdApdyfN2-67" value="" style="line;strokeWidth=2;direction=south;html=1;hachureGap=4;fontFamily=Architects Daughter;fontSource=https://fonts.googleapis.com/css?family=Architects+Daughter;strokeColor=#000000;aspect=fixed;container=0;" vertex="1" parent="1">
          <mxGeometry x="700" y="750" width="10" height="40" as="geometry" />
        </mxCell>
        <mxCell id="at9vFEWsNDnWdApdyfN2-68" value="" style="line;strokeWidth=2;direction=south;html=1;hachureGap=4;fontFamily=Architects Daughter;fontSource=https://fonts.googleapis.com/css?family=Architects+Daughter;strokeColor=#000000;aspect=fixed;container=0;" vertex="1" parent="1">
          <mxGeometry x="356" y="750" width="10" height="40" as="geometry" />
        </mxCell>
        <mxCell id="at9vFEWsNDnWdApdyfN2-75" value="&lt;font size=&quot;1&quot; color=&quot;#000000&quot; face=&quot;Comic Sans MS&quot; style=&quot;&quot;&gt;&lt;b style=&quot;font-size: 13px;&quot;&gt;F&lt;/b&gt;&lt;/font&gt;" style="text;strokeColor=none;align=center;fillColor=none;html=1;verticalAlign=middle;whiteSpace=wrap;rounded=0;fontFamily=Architects Daughter;fontSource=https://fonts.googleapis.com/css?family=Architects+Daughter;aspect=fixed;container=0;" vertex="1" parent="1">
          <mxGeometry x="505" y="445" width="40" height="30" as="geometry" />
        </mxCell>
        <mxCell id="at9vFEWsNDnWdApdyfN2-73" value="&lt;font size=&quot;1&quot; color=&quot;#000000&quot; face=&quot;Comic Sans MS&quot; style=&quot;&quot;&gt;&lt;b style=&quot;font-size: 13px;&quot;&gt;V&lt;/b&gt;&lt;/font&gt;" style="text;strokeColor=none;align=center;fillColor=none;html=1;verticalAlign=middle;whiteSpace=wrap;rounded=0;fontFamily=Architects Daughter;fontSource=https://fonts.googleapis.com/css?family=Architects+Daughter;aspect=fixed;container=0;" vertex="1" parent="1">
          <mxGeometry x="145" y="445" width="60" height="30" as="geometry" />
        </mxCell>
        <mxCell id="at9vFEWsNDnWdApdyfN2-74" value="&lt;font size=&quot;1&quot; color=&quot;#000000&quot; face=&quot;Comic Sans MS&quot; style=&quot;&quot;&gt;&lt;b style=&quot;font-size: 13px;&quot;&gt;V&lt;/b&gt;&lt;/font&gt;" style="text;strokeColor=none;align=center;fillColor=none;html=1;verticalAlign=middle;whiteSpace=wrap;rounded=0;fontFamily=Architects Daughter;fontSource=https://fonts.googleapis.com/css?family=Architects+Daughter;aspect=fixed;container=0;" vertex="1" parent="1">
          <mxGeometry x="346" y="595" width="30" height="30" as="geometry" />
        </mxCell>
        <mxCell id="at9vFEWsNDnWdApdyfN2-72" value="&lt;font size=&quot;1&quot; color=&quot;#000000&quot; face=&quot;Comic Sans MS&quot; style=&quot;&quot;&gt;&lt;b style=&quot;font-size: 13px;&quot;&gt;F&lt;/b&gt;&lt;/font&gt;" style="text;strokeColor=none;align=center;fillColor=none;html=1;verticalAlign=middle;whiteSpace=wrap;rounded=0;fontFamily=Architects Daughter;fontSource=https%3A%2F%2Ffonts.googleapis.com%2Fcss%3Ffamily%3DArchitects%2BDaughter;aspect=fixed;container=0;" vertex="1" parent="1">
          <mxGeometry x="690" y="595" width="30" height="30" as="geometry" />
        </mxCell>
        <mxCell id="at9vFEWsNDnWdApdyfN2-2" value="" style="strokeWidth=2;html=1;shape=mxgraph.flowchart.start_2;whiteSpace=wrap;rounded=0;labelBackgroundColor=none;strokeColor=#000000;align=center;verticalAlign=middle;fontFamily=Helvetica;fontSize=12;fontColor=default;fillColor=#d5e8d4;aspect=fixed;container=0;" vertex="1" parent="1">
          <mxGeometry x="330" y="230" width="30" height="40" as="geometry" />
        </mxCell>
        <mxCell id="at9vFEWsNDnWdApdyfN2-7" value="&lt;b&gt;&lt;font color=&quot;#000000&quot; style=&quot;font-size: 17px;&quot; face=&quot;Comic Sans MS&quot;&gt;I&lt;/font&gt;&lt;/b&gt;" style="text;strokeColor=none;align=center;fillColor=none;html=1;verticalAlign=middle;whiteSpace=wrap;rounded=0;fontFamily=Architects Daughter;fontSource=https%3A%2F%2Ffonts.googleapis.com%2Fcss%3Ffamily%3DArchitects%2BDaughter;aspect=fixed;container=0;" vertex="1" parent="1">
          <mxGeometry x="330" y="235" width="30" height="30" as="geometry" />
        </mxCell>
        <mxCell id="at9vFEWsNDnWdApdyfN2-3" value="" style="strokeWidth=2;html=1;shape=mxgraph.flowchart.start_2;whiteSpace=wrap;rounded=0;labelBackgroundColor=none;strokeColor=#000000;align=center;verticalAlign=middle;fontFamily=Helvetica;fontSize=12;fontColor=default;fillColor=#d5e8d4;aspect=fixed;container=0;" vertex="1" parent="1">
          <mxGeometry x="330" y="870" width="30" height="40" as="geometry" />
        </mxCell>
        <mxCell id="at9vFEWsNDnWdApdyfN2-8" value="&lt;b&gt;&lt;font color=&quot;#000000&quot; style=&quot;font-size: 17px;&quot; face=&quot;Comic Sans MS&quot;&gt;F&lt;/font&gt;&lt;/b&gt;" style="text;strokeColor=none;align=center;fillColor=none;html=1;verticalAlign=middle;whiteSpace=wrap;rounded=0;fontFamily=Architects Daughter;fontSource=https://fonts.googleapis.com/css?family=Architects+Daughter;aspect=fixed;container=0;" vertex="1" parent="1">
          <mxGeometry x="330" y="875" width="30" height="30" as="geometry" />
        </mxCell>
        <mxCell id="at9vFEWsNDnWdApdyfN2-4" value="" style="shape=trapezoid;perimeter=trapezoidPerimeter;whiteSpace=wrap;html=1;fixedSize=1;rounded=0;labelBackgroundColor=none;strokeColor=#121211;strokeWidth=2;align=center;verticalAlign=middle;fontFamily=Helvetica;fontSize=12;fontColor=default;fillColor=#d5e8d4;direction=west;container=0;aspect=fixed;" vertex="1" parent="1">
          <mxGeometry x="250" y="300" width="190" height="40" as="geometry">
            <mxRectangle x="-1020" y="-650" width="50" height="40" as="alternateBounds" />
          </mxGeometry>
        </mxCell>
        <mxCell id="at9vFEWsNDnWdApdyfN2-11" value="&lt;b&gt;&lt;font color=&quot;#000000&quot; style=&quot;font-size: 15px;&quot; face=&quot;Comic Sans MS&quot;&gt;num1, num2, num3&lt;/font&gt;&lt;/b&gt;" style="text;strokeColor=none;align=center;fillColor=none;html=1;verticalAlign=middle;whiteSpace=wrap;rounded=0;fontFamily=Architects Daughter;fontSource=https://fonts.googleapis.com/css?family=Architects+Daughter;aspect=fixed;container=0;" vertex="1" parent="1">
          <mxGeometry x="260" y="305" width="170" height="30" as="geometry" />
        </mxCell>
        <mxCell id="at9vFEWsNDnWdApdyfN2-44" value="" style="line;strokeWidth=2;direction=south;html=1;hachureGap=4;fontFamily=Architects Daughter;fontSource=https://fonts.googleapis.com/css?family=Architects+Daughter;strokeColor=#000000;aspect=fixed;container=0;" vertex="1" parent="1">
          <mxGeometry x="340" y="270" width="10" height="30" as="geometry" />
        </mxCell>
        <mxCell id="at9vFEWsNDnWdApdyfN2-5" value="" style="shape=trapezoid;perimeter=trapezoidPerimeter;whiteSpace=wrap;html=1;fixedSize=1;rounded=0;labelBackgroundColor=none;strokeColor=#0F140C;strokeWidth=2;align=center;verticalAlign=middle;fontFamily=Helvetica;fontSize=12;fontColor=default;fillColor=#d5e8d4;aspect=fixed;container=0;" vertex="1" parent="1">
          <mxGeometry x="110" y="547" width="130" height="40" as="geometry" />
        </mxCell>
        <mxCell id="at9vFEWsNDnWdApdyfN2-20" value="&lt;b&gt;&lt;font color=&quot;#000000&quot; style=&quot;font-size: 15px;&quot; face=&quot;Comic Sans MS&quot;&gt;medio_num1&lt;/font&gt;&lt;/b&gt;" style="text;strokeColor=none;align=center;fillColor=none;html=1;verticalAlign=middle;whiteSpace=wrap;rounded=0;fontFamily=Architects Daughter;fontSource=https://fonts.googleapis.com/css?family=Architects+Daughter;aspect=fixed;container=0;" vertex="1" parent="1">
          <mxGeometry x="120" y="549.5" width="110" height="35" as="geometry" />
        </mxCell>
        <mxCell id="at9vFEWsNDnWdApdyfN2-37" value="" style="shape=trapezoid;perimeter=trapezoidPerimeter;whiteSpace=wrap;html=1;fixedSize=1;rounded=0;labelBackgroundColor=none;strokeColor=#0F140C;strokeWidth=2;align=center;verticalAlign=middle;fontFamily=Helvetica;fontSize=12;fontColor=default;fillColor=#d5e8d4;aspect=fixed;container=0;" vertex="1" parent="1">
          <mxGeometry x="300" y="710" width="130" height="40" as="geometry" />
        </mxCell>
        <mxCell id="at9vFEWsNDnWdApdyfN2-38" value="&lt;b&gt;&lt;font color=&quot;#000000&quot; style=&quot;font-size: 15px;&quot; face=&quot;Comic Sans MS&quot;&gt;medio_num2&lt;/font&gt;&lt;/b&gt;" style="text;strokeColor=none;align=center;fillColor=none;html=1;verticalAlign=middle;whiteSpace=wrap;rounded=0;fontFamily=Architects Daughter;fontSource=https://fonts.googleapis.com/css?family=Architects+Daughter;aspect=fixed;container=0;" vertex="1" parent="1">
          <mxGeometry x="310" y="712.5" width="110" height="35" as="geometry" />
        </mxCell>
        <mxCell id="at9vFEWsNDnWdApdyfN2-40" value="" style="shape=trapezoid;perimeter=trapezoidPerimeter;whiteSpace=wrap;html=1;fixedSize=1;rounded=0;labelBackgroundColor=none;strokeColor=#0F140C;strokeWidth=2;align=center;verticalAlign=middle;fontFamily=Helvetica;fontSize=12;fontColor=default;fillColor=#d5e8d4;aspect=fixed;container=0;" vertex="1" parent="1">
          <mxGeometry x="640" y="710" width="130" height="40" as="geometry" />
        </mxCell>
        <mxCell id="at9vFEWsNDnWdApdyfN2-41" value="&lt;b&gt;&lt;font color=&quot;#000000&quot; style=&quot;font-size: 15px;&quot; face=&quot;Comic Sans MS&quot;&gt;medio_num3&lt;/font&gt;&lt;/b&gt;" style="text;strokeColor=none;align=center;fillColor=none;html=1;verticalAlign=middle;whiteSpace=wrap;rounded=0;fontFamily=Architects Daughter;fontSource=https://fonts.googleapis.com/css?family=Architects+Daughter;aspect=fixed;container=0;" vertex="1" parent="1">
          <mxGeometry x="650" y="712.5" width="110" height="35" as="geometry" />
        </mxCell>
        <mxCell id="at9vFEWsNDnWdApdyfN2-6" value="" style="rhombus;whiteSpace=wrap;html=1;rounded=0;labelBackgroundColor=none;strokeColor=#0F140C;strokeWidth=2;align=center;verticalAlign=middle;fontFamily=Helvetica;fontSize=12;fontColor=default;fillColor=#d5e8d4;aspect=fixed;container=0;" vertex="1" parent="1">
          <mxGeometry x="245" y="370" width="200" height="200" as="geometry" />
        </mxCell>
        <mxCell id="at9vFEWsNDnWdApdyfN2-18" value="&lt;b style=&quot;&quot;&gt;&lt;font color=&quot;#000000&quot; style=&quot;font-size: 12px;&quot; face=&quot;Comic Sans MS&quot;&gt;num1 &amp;gt; num2&lt;/font&gt;&lt;/b&gt;&lt;div style=&quot;&quot;&gt;&lt;b&gt;&lt;font color=&quot;#000000&quot; style=&quot;font-size: 12px;&quot; face=&quot;Comic Sans MS&quot;&gt;&amp;amp;&amp;amp;&lt;/font&gt;&lt;/b&gt;&lt;/div&gt;&lt;div style=&quot;&quot;&gt;&lt;b style=&quot;&quot;&gt;&lt;font color=&quot;#000000&quot; style=&quot;font-size: 12px;&quot; face=&quot;Comic Sans MS&quot;&gt;num1 &amp;lt; num3&lt;/font&gt;&lt;/b&gt;&lt;/div&gt;&lt;div style=&quot;&quot;&gt;&lt;b style=&quot;&quot;&gt;&lt;font color=&quot;#000000&quot; style=&quot;font-size: 12px;&quot; face=&quot;Comic Sans MS&quot;&gt;||&lt;/font&gt;&lt;/b&gt;&lt;/div&gt;&lt;div style=&quot;&quot;&gt;&lt;b style=&quot;&quot;&gt;&lt;font color=&quot;#000000&quot; style=&quot;font-size: 12px;&quot; face=&quot;Comic Sans MS&quot;&gt;num1 &amp;gt; num3&lt;/font&gt;&lt;/b&gt;&lt;/div&gt;&lt;div style=&quot;&quot;&gt;&lt;b style=&quot;&quot;&gt;&lt;font color=&quot;#000000&quot; style=&quot;font-size: 12px;&quot; face=&quot;Comic Sans MS&quot;&gt;&amp;amp;&amp;amp;&lt;/font&gt;&lt;/b&gt;&lt;/div&gt;&lt;div style=&quot;&quot;&gt;&lt;b style=&quot;&quot;&gt;&lt;font color=&quot;#000000&quot; style=&quot;font-size: 12px;&quot; face=&quot;Comic Sans MS&quot;&gt;num1 &amp;lt; num2&lt;/font&gt;&lt;/b&gt;&lt;/div&gt;" style="text;strokeColor=none;align=center;fillColor=none;html=1;verticalAlign=middle;whiteSpace=wrap;rounded=0;fontFamily=Architects Daughter;fontSource=https://fonts.googleapis.com/css?family=Architects+Daughter;container=0;aspect=fixed;" vertex="1" parent="1">
          <mxGeometry x="295" y="410" width="100" height="120" as="geometry" />
        </mxCell>
        <mxCell id="at9vFEWsNDnWdApdyfN2-57" value="" style="rhombus;whiteSpace=wrap;html=1;rounded=0;labelBackgroundColor=none;strokeColor=#0F140C;strokeWidth=2;align=center;verticalAlign=middle;fontFamily=Helvetica;fontSize=12;fontColor=default;fillColor=#d5e8d4;aspect=fixed;container=0;" vertex="1" parent="1">
          <mxGeometry x="430" y="525" width="200" height="200" as="geometry" />
        </mxCell>
        <mxCell id="at9vFEWsNDnWdApdyfN2-58" value="&lt;b style=&quot;&quot;&gt;&lt;font color=&quot;#000000&quot; style=&quot;font-size: 12px;&quot; face=&quot;Comic Sans MS&quot;&gt;num2 &amp;gt; num1&lt;/font&gt;&lt;/b&gt;&lt;div style=&quot;&quot;&gt;&lt;b&gt;&lt;font color=&quot;#000000&quot; style=&quot;font-size: 12px;&quot; face=&quot;Comic Sans MS&quot;&gt;&amp;amp;&amp;amp;&lt;/font&gt;&lt;/b&gt;&lt;/div&gt;&lt;div style=&quot;&quot;&gt;&lt;b style=&quot;&quot;&gt;&lt;font color=&quot;#000000&quot; style=&quot;font-size: 12px;&quot; face=&quot;Comic Sans MS&quot;&gt;num2 &amp;lt; num3&lt;/font&gt;&lt;/b&gt;&lt;/div&gt;&lt;div style=&quot;&quot;&gt;&lt;b style=&quot;&quot;&gt;&lt;font color=&quot;#000000&quot; style=&quot;font-size: 12px;&quot; face=&quot;Comic Sans MS&quot;&gt;||&lt;/font&gt;&lt;/b&gt;&lt;/div&gt;&lt;div style=&quot;&quot;&gt;&lt;b style=&quot;&quot;&gt;&lt;font color=&quot;#000000&quot; style=&quot;font-size: 12px;&quot; face=&quot;Comic Sans MS&quot;&gt;num2 &amp;gt; num3&lt;/font&gt;&lt;/b&gt;&lt;/div&gt;&lt;div style=&quot;&quot;&gt;&lt;b style=&quot;&quot;&gt;&lt;font color=&quot;#000000&quot; style=&quot;font-size: 12px;&quot; face=&quot;Comic Sans MS&quot;&gt;&amp;amp;&amp;amp;&lt;/font&gt;&lt;/b&gt;&lt;/div&gt;&lt;div style=&quot;&quot;&gt;&lt;b style=&quot;&quot;&gt;&lt;font color=&quot;#000000&quot; style=&quot;font-size: 12px;&quot; face=&quot;Comic Sans MS&quot;&gt;num2 &amp;lt; num1&lt;/font&gt;&lt;/b&gt;&lt;/div&gt;" style="text;strokeColor=none;align=center;fillColor=none;html=1;verticalAlign=middle;whiteSpace=wrap;rounded=0;fontFamily=Architects Daughter;fontSource=https://fonts.googleapis.com/css?family=Architects+Daughter;container=0;aspect=fixed;" vertex="1" parent="1">
          <mxGeometry x="480" y="565" width="100" height="120" as="geometry" />
        </mxCell>
      </root>
    </mxGraphModel>
  </diagram>
</mxfile>
